HIERARCHY
ROOT base
{
	OFFSET 0.0 0.0 0.0
	CHANNELS 6 Xposition Yposition Zposition Zrotation Yrotation Xrotation
	JOINT root
	{
		OFFSET 0 0 0
		CHANNELS 6 Xposition Yposition Zposition Zrotation Yrotation Xrotation
		JOINT chest
		{
			OFFSET 0 4.72302 0
			CHANNELS 3 Zrotation Yrotation Xrotation
			JOINT neck
			{
				OFFSET 0 4.47788 0
				CHANNELS 3 Zrotation Yrotation Xrotation
				End Site
				{
					OFFSET 0.0 0.0 0.0
				}
			}
			JOINT right_shoulder
			{
				OFFSET -0.481 4.87 3.6622
				CHANNELS 3 Zrotation Yrotation Xrotation
				JOINT right_elbow
				{
					OFFSET 0 -5.49576 0
					CHANNELS 3 Zrotation Yrotation Xrotation
					JOINT right_wrist
					{
						OFFSET 0 -5.17894 0
						CHANNELS 3 Zrotation Yrotation Xrotation
						End Site
						{
							OFFSET 0.0 0.0 0.0
						}
					}
				}
			}
			JOINT left_shoulder
			{
				OFFSET -0.481 4.87 -3.6622
				CHANNELS 3 Zrotation Yrotation Xrotation
				JOINT left_elbow
				{
					OFFSET 0 -5.49576 0
					CHANNELS 3 Zrotation Yrotation Xrotation
					JOINT left_wrist
					{
						OFFSET 0 -5.17894 0
						CHANNELS 3 Zrotation Yrotation Xrotation
						End Site
						{
							OFFSET 0.0 0.0 0.0
						}
					}
				}
			}
		}
		JOINT right_hip
		{
			OFFSET 0 0 1.69774
			CHANNELS 3 Zrotation Yrotation Xrotation
			JOINT right_knee
			{
				OFFSET 0 -8.43092 0
				CHANNELS 3 Zrotation Yrotation Xrotation
				JOINT right_ankle
				{
					OFFSET 0 -8.1974 0
					CHANNELS 3 Zrotation Yrotation Xrotation
					End Site
					{
						OFFSET 0.0 0.0 0.0
					}
				}
			}
		}
		JOINT left_hip
		{
			OFFSET 0 0 -1.69774
			CHANNELS 3 Zrotation Yrotation Xrotation
			JOINT left_knee
			{
				OFFSET 0 -8.43092 0
				CHANNELS 3 Zrotation Yrotation Xrotation
				JOINT left_ankle
				{
					OFFSET 0 -8.1974 0
					CHANNELS 3 Zrotation Yrotation Xrotation
					End Site
					{
						OFFSET 0.0 0.0 0.0
					}
				}
			}
		}
	}
	JOINT red_arrow
	{
		OFFSET 0 0 0
		CHANNELS 3 Zrotation Yrotation Xrotation
		End Site
		{
			OFFSET 0.0 0.0 0.0
		}
	}
	JOINT blue_arrow
	{
		OFFSET 0 0 0
		CHANNELS 3 Zrotation Yrotation Xrotation
		End Site
		{
			OFFSET 0.0 0.0 0.0
		}
	}
}
MOTION
Frames: 12
Frame Time: 0.0333333333333333
-128.376615035534 0 10.5243218541145 0 -49.3452116357553 0 0 14.5813158035278 0 -88.6641331319595 17.4648177326158 -59.7068097486922 -9.470990266813 -0.86827239959396 -2.31575650299557 -10.4353321904774 -11.9767648849894 2.5902561590665 37.9605850982288 21.3681489747933 -25.9287669263721 37.9555797838143 0 0 0 0 0 17.2282747288747 -52.5493928152836 39.5840887396452 22.8543662081854 0 0 0 0 0 110.423020518379 4.65201843769919 -10.5897634608546 -72.7570191900517 0 0 35.9806312366371 -2.36686357153109 3.74382712479988 112.962040969511 -0.715181646961184 -6.20948079605286 -66.7151841144202 0 0 28.5776221227702 -4.11668699120859 -3.13746768226649 0 0 0 0 0 0
-128.62660112381 0 10.6017336368561 0 -45.3051210351144 0 0 14.6600782752037 0 -84.2145565280258 23.1946588128486 -56.0129744359003 -7.57314093376226 -0.548481407078207 -1.28030424870791 -7.21845113352047 -8.35202958294862 1.77789828057945 39.6808078578727 19.6278661741975 -19.5999668419396 36.6873126926859 0 0 0 0 0 27.9149138986754 -47.6455789875923 29.8242041862865 21.6674791134704 0 0 0 0 0 105.25825997948 -0.915759123484188 -14.7813882901289 -71.8969549395746 0 0 34.6779038231662 2.96827019191046 3.39453781704356 106.603891266842 1.04986528177071 -5.46756438047673 -65.1762810227138 0 0 26.5279431941827 -7.75481745770176 -2.91052099571336 0 0 0 0 0 0
-128.803372061253 0 10.6791299939156 0 -41.6454599849941 0 0 14.9529084682465 0 -78.539006643163 28.0308271421253 -51.4566619148557 -10.5901926250385 -1.2030887868959 -0.816177281478654 -5.12146156133409 -6.51123748404144 1.19090005225373 40.3969838306993 19.3245826361899 -15.0232506929262 33.7562633688746 0 0 0 0 0 35.2622240119057 -44.2803609777395 24.1890801481721 20.8732715469705 0 0 0 0 0 100.152175295192 -4.98561098663621 -17.4385473257411 -68.333891136389 0 0 32.0774992139671 3.96588639942729 2.68756935590307 98.5784535438129 3.46348886584597 -3.82523604701691 -61.0360252535272 0 0 23.5934802193907 -11.9863710178301 -2.47024757400725 0 0 0 0 0 0
-128.807325315475 0 10.6893189013004 0 -38.389050896842 0 0 15.1585738301277 0 -69.9840517458002 32.6305111690915 -45.5422432086456 -13.2234183085267 -1.71647348033823 -0.0036112834305271 -7.69429381172564 -5.50201299720743 1.51797317135414 38.0261473492941 17.757843386552 -12.3078253833134 32.7740036190513 0 0 0 0 0 36.0375215229112 -39.4862045691819 20.4417949422585 23.9937578749595 0 0 0 0 0 91.9780178092945 -8.11401787639044 -18.1812718340554 -64.6394281539508 0 0 27.5172892769262 1.85382769572614 2.92292224409201 89.3908947665731 4.76867022824024 -1.8649727068768 -58.6665506681797 0 0 22.2996143306567 -14.864416697035 -2.06878572300118 0 0 0 0 0 0
-128.721088695526 0 10.6384568572044 0 -35.432581331559 0 0 15.6154771327972 0 -61.9369705037096 35.0696535535085 -38.906948662809 -13.8407585069272 -2.06754919682764 0.254620397813147 -9.90377373514507 -5.60564228730112 1.94251848692741 33.8272211479216 15.7650756227124 -10.5572563296794 33.493236199032 0 0 0 0 0 34.9615364135278 -35.8683039091674 17.2061561814784 25.6954482802494 0 0 0 0 0 82.5820172474811 -10.6400716762854 -17.8659446508041 -58.2472658456001 0 0 24.5316440535277 3.31196291802985 2.94373824956839 79.4582379358363 5.63896824607412 -1.06146986003981 -52.4918035263943 0 0 19.737821362079 -15.8727135803751 -1.78459351215353 0 0 0 0 0 0
-128.527753078938 0 10.5601112052798 0 -32.7674730206153 0 0 16.0865900874138 0 -52.7196895283067 36.4415180222186 -31.7313749349824 -14.806969059361 -2.32316658416912 0.783700532838442 -13.0809735700536 -6.12174103291311 2.99961130604852 28.9687387487593 13.6374410301112 -9.36140897765066 33.7360972353501 0 0 0 0 0 32.262915706642 -32.988009974564 15.1984614529637 27.17506532996 0 0 0 0 0 71.573527203386 -12.2931644621726 -16.20908212654 -50.993181475318 0 0 21.5988069990881 3.35896356292566 2.97696005679787 68.437532393337 5.9939421611066 -0.388822227806 -45.6606376393302 0 0 17.323306238224 -15.5686208976457 -1.63022373740561 0 0 0 0 0 0
-128.287297999859 0 10.4785460755229 0 -30.3927735311514 0 0 16.5189698219299 0 -43.6976391991412 35.9801172741537 -24.9002643247257 -14.3154784762031 -2.24739679398691 1.15696074623579 -15.623857748303 -6.60204056270689 3.93563521436505 24.9235251774536 12.098647032292 -8.76592076294529 34.2532381781685 0 0 0 0 0 28.8349877576056 -29.9115622051915 13.7026398375641 27.8334118961319 0 0 0 0 0 60.4007727154268 -12.2110370215348 -13.4221839076384 -43.1197970228017 0 0 18.4610818779197 2.92471446644586 3.20833697212642 57.9169481744683 6.02646922565047 0.271834281475692 -38.7175317819588 0 0 14.8996525884937 -13.4804744991945 -1.47487708229412 0 0 0 0 0 0
-128.007668209076 0 10.4100624524057 0 -28.2789063139331 0 0 16.9061761617661 0 -35.7830937003551 34.397958890242 -19.0241950523298 -12.8362283199674 -2.00944331888961 1.25787955595517 -17.1372873496766 -7.00644481875259 4.67191792413421 20.9094118912634 10.2736176329946 -8.0442595817116 35.1536859221133 0 0 0 0 0 24.9762029071947 -26.1138931631975 12.2423342550123 27.491386758349 0 0 0 0 0 49.6970545791065 -11.6320716053818 -10.7829465779149 -34.770064932285 0 0 15.1167785819069 2.36686046975409 3.34737340342044 47.631129918955 5.63979807896314 0.597678196359179 -30.9937626232116 0 0 12.32187267681 -10.6772997420437 -1.50686170331108 0 0 0 0 0 0
-127.709499633312 0 10.3712671227753 0 -26.3952907645616 0 0 17.1851070404053 0 -28.6231634523561 32.3263825188218 -14.0881104201502 -11.2040468398378 -1.69015108727777 1.27335191538263 -18.2290195299883 -7.31328755349022 5.30612821260264 17.6588449424352 8.81753881087836 -7.58214114619089 35.1269969579315 0 0 0 0 0 21.47474357085 -23.133939915561 11.245636296379 26.4113699260299 0 0 0 0 0 39.5872283221524 -10.1118375599817 -8.40971650808875 -27.2042456056416 0 0 12.1870782990323 1.36058841289193 3.43522670875673 37.9583044612906 4.91117573930618 0.853177759498104 -24.2221150045751 0 0 10.1470438539453 -7.55024855602252 -1.62249959309995 0 0 0 0 0 0
-127.392338442802 0 10.3563733167946 0 -24.7203979103867 0 0 17.382758462429 0 -22.3816971168878 29.8485609782826 -10.0573921312526 -8.88911298861654 -1.34848014406147 1.1074791875725 -18.8092314108625 -7.48428235926557 5.60836113303746 14.7057298355903 7.28875640342713 -7.08107799243413 34.6819691523702 0 0 0 0 0 17.9913628622022 -19.6251515662928 10.0541686299332 24.7818251013955 0 0 0 0 0 30.2335655539066 -8.04248896632726 -6.50678074691997 -20.1920096961332 0 0 9.55995433991055 0.241599592237049 3.44926504119822 28.6601360573074 3.81234537081053 1.05826596481294 -17.4668854531559 0 0 8.15984278775668 -4.49178013908259 -1.86002579242555 0 0 0 0 0 0
-127.083451229334 0 10.3794580332935 0 -23.222314301523 0 0 17.5091235995293 0 -17.1545702442153 27.3848344989169 -6.98402436441797 -6.17161933238653 -1.0099577185852 0.801722622558746 -18.9429751722477 -7.65185888285945 5.80294447247862 11.7047930879665 5.62277384251715 -6.20669306655145 34.069482183833 0 0 0 0 0 14.6205131520364 -16.0098709922013 8.74570032476982 23.3334220161918 0 0 0 0 0 21.8868924440515 -5.84902277025533 -5.1200090828282 -13.8993572675741 0 0 7.28258370534091 -0.832744891804655 3.35120141475335 20.0641862857516 2.64298383125737 1.28785180383442 -10.9615631319574 0 0 6.09756151256007 -1.66260192031301 -2.11433595893083 0 0 0 0 0 0
-126.796014213562 0 10.4418480361812 0 -21.8776003209519 0 0 17.5724281311035 0 -12.5713989099166 25.0126822571272 -4.74288390957016 -3.54646369283927 -0.586336056132024 0.534471603218552 -18.8962351689735 -7.80161609890664 5.85342573444998 8.67271801036739 4.00577028943782 -4.87469343634456 33.5946952440579 0 0 0 0 0 11.6147653792009 -12.659565356501 7.34616845396312 22.1933968493723 0 0 0 0 0 14.4440132622954 -3.64078376857762 -3.93619776159638 -8.57135465361074 0 0 5.43919529936734 -1.97411450655192 3.09907407824936 12.2307623364012 1.45790921065125 1.77722403856734 -5.18465017677635 0 0 4.24142031672964 1.02642787774382 -2.38650329886485 0 0 0 0 0 0
